<?xml version="1.0" encoding="utf-8"?>
<!-- Generator: Adobe Illustrator 17.1.0, SVG Export Plug-In . SVG Version: 6.00 Build 0)  -->
<!DOCTYPE svg PUBLIC "-//W3C//DTD SVG 1.1//EN" "http://www.w3.org/Graphics/SVG/1.1/DTD/svg11.dtd">
<svg version="1.1" id="Layer_1" xmlns="http://www.w3.org/2000/svg" xmlns:xlink="http://www.w3.org/1999/xlink" x="0px" y="0px"
	 viewBox="0 0 100 100" enable-background="new 0 0 100 100" xml:space="preserve">
<path d="M50,0C22.386,0,0,22.386,0,50s22.386,50,50,50s50-22.386,50-50S77.614,0,50,0L50,0z"/>
<path fill="#FFFFFF" d="M70.863,45.789H54.211V29.137C54.211,26.852,52.325,25,50,25c-2.325,0-4.209,1.852-4.21,4.137v16.653H29.137
	C26.852,45.789,25,47.675,25,50s1.852,4.209,4.137,4.21H45.79v16.653C45.79,73.148,47.675,75,50,75c2.325,0,4.211-1.852,4.211-4.137
	V54.21h16.653C73.148,54.21,75,52.325,75,50S73.148,45.789,70.863,45.789z"/>
</svg>
